<svg width="20" height="20" viewBox="0 0 20 20" fill="none" xmlns="http://www.w3.org/2000/svg">
<g clip-path="url(#clip0_110821_29)">
<path d="M0 1.875L0 18.125C0 19.1562 0.84375 20 1.875 20H18.125C19.1562 20 20 19.1562 20 18.125V1.875C20 0.84375 19.1562 0 18.125 0H1.875C0.84375 0 0 0.84375 0 1.875ZM16.25 12.5V15H7.5L7.5 12.5H16.25ZM6.25 13.75C6.25 14.4414 5.69141 15 5 15C4.30859 15 3.75 14.4414 3.75 13.75C3.75 13.0586 4.30859 12.5 5 12.5C5.69141 12.5 6.25 13.0586 6.25 13.75ZM16.25 3.75V6.25L11.25 6.25C10.5586 6.25 10 6.80859 10 7.5C10 8.19141 10.5586 8.75 11.25 8.75L16.25 8.75V11.25L7.5 11.25V8.75H9.05078C8.34375 8.23438 7.5 7.44531 7.5 6.5625C7.5 5.00781 8.89844 3.75 10.625 3.75H16.25Z" fill="black"/>
</g>
<defs>
<clipPath id="clip0_110821_29">
<rect width="20" height="20" fill="white" transform="matrix(0 -1 1 0 0 20)"/>
</clipPath>
</defs>
</svg>
